<svg xmlns="http://www.w3.org/2000/svg" width="2218" height="1045" viewBox="0 0 2218 1045" version="1.1"><path d="M 308.585 403.041 C 284.995 406.742, 265.048 416.902, 249.432 433.172 C 239.493 443.526, 236.107 448.421, 229.961 461.313 C 220.732 480.675, 216.426 504.558, 217.307 531.500 C 218.542 569.281, 227.788 594.193, 248.694 616.075 C 262.304 630.320, 276.745 638.715, 297 644.153 C 307.797 647.053, 334.075 647.814, 346.823 645.597 C 365.201 642.400, 380.226 635.672, 392.962 624.936 C 399.687 619.268, 409.043 606.860, 413.944 597.110 C 418.122 588.798, 424.252 572.257, 423.733 570.699 C 423.300 569.399, 377.684 554.899, 376.862 555.799 C 376.510 556.184, 375.455 559.200, 374.517 562.500 C 372.027 571.270, 366.893 581.775, 362.247 587.608 C 344.574 609.796, 308.079 610.919, 287.080 589.920 C 273.698 576.538, 267.957 556.752, 267.954 524 C 267.950 491.906, 272.843 474.724, 285.989 460.671 C 301.610 443.972, 327.876 439.239, 349.037 449.309 C 359.970 454.511, 368.793 464.857, 372.949 477.348 L 375.072 483.728 388.786 480.454 C 426.647 471.416, 422.515 472.770, 422.378 469.440 C 422.210 465.338, 416.720 451.907, 411.776 443.500 C 404.236 430.680, 388.609 417.235, 373.425 410.503 C 360.816 404.912, 349.952 402.827, 331.500 402.455 C 322.150 402.267, 311.838 402.531, 308.585 403.041 M 989.108 403.071 C 953.571 407.089, 930.179 423.759, 921.855 451 C 918.903 460.661, 918.687 476.476, 921.386 485.500 C 924.532 496.023, 929.917 504.910, 938.118 513.115 C 944.615 519.615, 947.408 521.548, 957.118 526.264 C 970.782 532.902, 974.355 534.079, 1006.500 542.533 C 1020.250 546.149, 1034.545 550.504, 1038.266 552.209 C 1056.634 560.629, 1060.302 577.755, 1046.883 592.438 C 1038.226 601.910, 1026.713 606, 1008.711 606 C 987.068 606, 972.467 597.719, 964.179 580.743 C 961.966 576.209, 959.588 569.863, 958.894 566.639 L 957.632 560.779 953.566 561.320 C 951.330 561.617, 940.837 562.654, 930.250 563.623 L 911 565.385 911.022 567.943 C 911.034 569.349, 911.892 574.325, 912.930 579 C 920.115 611.380, 938.988 632.826, 968.238 641.849 C 993.419 649.617, 1035.243 648.328, 1057.958 639.084 C 1081.729 629.410, 1096.332 612.196, 1102.037 587.123 C 1103.876 579.041, 1102.773 559.265, 1099.994 550.500 C 1097.030 541.150, 1094.682 536.695, 1088.821 529.300 C 1076.911 514.272, 1059.556 505.865, 1020.023 495.971 C 976.655 485.117, 965.769 478.903, 965.769 465 C 965.769 451.165, 980.915 442.641, 1005.500 442.639 C 1029.058 442.637, 1041.355 450.778, 1046.634 469.870 L 1048.395 476.241 1068.447 475.586 C 1079.476 475.226, 1090.249 474.672, 1092.386 474.355 L 1096.272 473.778 1095.721 466.494 C 1094.986 456.777, 1090.421 443.906, 1084.607 435.161 C 1073.710 418.770, 1056.698 408.638, 1033 404.424 C 1022.271 402.517, 1000.068 401.832, 989.108 403.071 M 1229.500 403.170 C 1181.411 408.633, 1146.918 441.898, 1137.457 491.940 C 1133.693 511.845, 1133.758 541.561, 1137.607 560.500 C 1146.908 606.265, 1179.181 638.345, 1223.084 645.465 C 1246.921 649.331, 1272.215 645.993, 1291.650 636.418 C 1313.048 625.876, 1328.783 606.495, 1337.937 579.406 L 1340.947 570.500 1320.223 563.746 C 1308.825 560.031, 1298.237 556.881, 1296.693 556.746 C 1294.003 556.510, 1293.771 556.857, 1291.112 565.055 C 1282.398 591.920, 1265.782 605.225, 1241 605.179 C 1214.404 605.130, 1195.025 588.773, 1188.069 560.500 C 1182.583 538.206, 1182.843 506.206, 1188.673 486.027 C 1192.023 474.430, 1196.399 466.601, 1203.500 459.500 C 1214.118 448.882, 1226.422 443.991, 1242.460 444.012 C 1258.109 444.032, 1268.004 447.924, 1278.238 458.081 C 1284.575 464.371, 1290.970 474.841, 1291.015 479 C 1291.063 483.489, 1291.877 483.442, 1316.375 477.520 L 1339.991 471.811 1339.357 469.156 C 1337.785 462.572, 1331.288 448.165, 1326.764 441.236 C 1308.033 412.543, 1271.805 398.365, 1229.500 403.170 M 463 524.500 L 463 643 553.500 643 L 644 643 644 623.139 L 644 603.279 638.750 602.648 C 635.862 602.301, 606.163 602.013, 572.750 602.009 L 512 602 512 570.500 L 512 539 571.500 539 L 631 539 631 518.500 L 631 498 571.500 498 L 512 498 512 472.500 L 512 447 575.344 447 L 638.688 447 639.344 431.841 C 639.705 423.504, 640 414.279, 640 411.341 L 640 406 551.500 406 L 463 406 463 524.500 M 684 524.482 L 684 643 706.494 643 L 728.988 643 729.244 566.758 L 729.500 490.516 776.500 566.718 L 823.500 642.920 847.750 642.960 L 872 643 872 524.500 L 872 406 849.506 406 L 827.012 406 826.756 483.848 L 826.500 561.695 778.945 484.098 L 731.389 406.500 707.695 406.232 L 684 405.964 684 524.482 M 1381 524.500 L 1381 643 1471 643 L 1561 643 1561 623 L 1561 603 1495 603 L 1429 603 1429 571 L 1429 539 1488.500 539 L 1548 539 1548 519 L 1548 499 1488.500 499 L 1429 499 1429 473 L 1429 447 1492.500 447 L 1556 447 1556 426.500 L 1556 406 1468.500 406 L 1381 406 1381 524.500 M 1601 524.431 L 1601 643 1625 643 L 1649 643 1649 593.347 L 1649 543.694 1659.750 544.317 C 1679.724 545.475, 1686.737 547.832, 1695.105 556.200 C 1701.193 562.288, 1709.434 573.861, 1735.348 612.713 L 1755.500 642.926 1784.750 642.963 C 1800.838 642.983, 1814 642.772, 1814 642.493 C 1814 641.479, 1775.998 581.249, 1769.837 572.500 C 1761.979 561.341, 1750.678 549.839, 1741.566 543.726 C 1737.340 540.891, 1735.195 538.902, 1736.068 538.629 C 1736.856 538.382, 1740.650 537.443, 1744.500 536.540 C 1754.308 534.242, 1768.417 527.126, 1775.160 521.077 C 1782.203 514.760, 1788.182 505.419, 1791.673 495.278 C 1794.038 488.410, 1794.360 485.921, 1794.426 474 C 1794.511 458.518, 1793.132 451.902, 1787.360 440.098 C 1784.828 434.919, 1781.603 430.536, 1776.620 425.501 C 1767.782 416.570, 1758.723 411.868, 1744.500 408.832 C 1734.989 406.801, 1731.238 406.677, 1667.750 406.279 L 1601 405.862 1601 524.431 M 1821.229 426.245 L 1821.500 446.500 1856.250 446.763 L 1891 447.026 1891 545.013 L 1891 643 1916 643 L 1941 643 1941 545.013 L 1941 447.026 1975.750 446.763 L 2010.500 446.500 2010.500 426.500 L 2010.500 406.500 1915.729 406.245 L 1820.959 405.990 1821.229 426.245 M 1649 476.406 L 1649 506 1671.250 505.979 C 1699.492 505.951, 1720.659 504.606, 1727.240 502.420 C 1734.030 500.165, 1740.192 493.950, 1742.486 487.043 C 1745.144 479.039, 1744.276 466.852, 1740.600 460.580 C 1737.701 455.634, 1731.400 450.882, 1725.035 448.842 C 1722.791 448.123, 1708.260 447.545, 1685.250 447.260 L 1649 446.812 1649 476.406 M 2049.362 524.924 C 2027.874 530.731, 2011.872 545.874, 2004.371 567.500 C 2001.937 574.519, 2001.596 576.972, 2001.596 587.500 C 2001.596 598.032, 2001.936 600.478, 2004.372 607.490 C 2005.898 611.885, 2008.790 618.185, 2010.798 621.490 C 2018.208 633.689, 2032.233 644.709, 2046 649.150 C 2055.091 652.082, 2072.107 652.757, 2081.500 650.558 C 2106.891 644.613, 2126.366 623.746, 2130.789 597.746 C 2132.199 589.459, 2132.248 586.941, 2131.148 579.323 C 2127.540 554.341, 2110.765 534.044, 2087 525.911 C 2077.673 522.718, 2059.303 522.237, 2049.362 524.924" stroke="none" fill="#245c9b" fill-rule="evenodd"/><path d="M 1109.500 4.089 C 1069.826 7.444, 1028.353 15.608, 992.219 27.173 C 832.207 78.389, 706.283 203.889, 655.044 363.211 C 644.846 394.923, 640.069 416.312, 639.291 433.750 C 638.773 445.362, 638.489 447, 636.988 447 C 635.101 447, 635.028 447.418, 632.476 472.654 C 630.401 493.178, 630.401 552.750, 632.476 573 C 634.169 589.517, 635.768 600.815, 636.605 602.171 C 636.887 602.627, 638.666 603, 640.559 603 L 644 603 644 623.311 L 644 643.622 648.436 659.561 C 672.386 745.623, 715.487 821.027, 776.810 884.150 C 866.203 976.167, 983.619 1031.108, 1111.950 1040.967 C 1129.287 1042.299, 1171.778 1042.295, 1189.050 1040.961 C 1358.950 1027.833, 1509.371 934.978, 1597.219 789 C 1638.958 719.641, 1664.964 636.249, 1669.598 556.905 L 1670.275 545.310 1665.498 544.655 C 1662.871 544.295, 1658.084 544, 1654.860 544 L 1649 544 1649 593.500 L 1649 643 1625 643 L 1601 643 1601 524.500 L 1601 406 1629.416 406 L 1657.832 406 1654.421 392.838 C 1605.514 204.118, 1455.604 58.676, 1265.500 15.510 C 1226.373 6.625, 1201.993 3.940, 1156.500 3.504 C 1136.700 3.314, 1115.550 3.577, 1109.500 4.089 M 989.108 403.071 C 953.571 407.089, 930.179 423.759, 921.855 451 C 918.903 460.661, 918.687 476.476, 921.386 485.500 C 924.532 496.023, 929.917 504.910, 938.118 513.115 C 944.615 519.615, 947.408 521.548, 957.118 526.264 C 970.782 532.902, 974.355 534.079, 1006.500 542.533 C 1020.250 546.149, 1034.545 550.504, 1038.266 552.209 C 1056.634 560.629, 1060.302 577.755, 1046.883 592.438 C 1038.226 601.910, 1026.713 606, 1008.711 606 C 987.068 606, 972.467 597.719, 964.179 580.743 C 961.966 576.209, 959.588 569.863, 958.894 566.639 L 957.632 560.779 953.566 561.320 C 951.330 561.617, 940.837 562.654, 930.250 563.623 L 911 565.385 911.022 567.943 C 911.034 569.349, 911.892 574.325, 912.930 579 C 920.115 611.380, 938.988 632.826, 968.238 641.849 C 993.419 649.617, 1035.243 648.328, 1057.958 639.084 C 1081.729 629.410, 1096.332 612.196, 1102.037 587.123 C 1103.876 579.041, 1102.773 559.265, 1099.994 550.500 C 1097.030 541.150, 1094.682 536.695, 1088.821 529.300 C 1076.911 514.272, 1059.556 505.865, 1020.023 495.971 C 976.655 485.117, 965.769 478.903, 965.769 465 C 965.769 451.165, 980.915 442.641, 1005.500 442.639 C 1029.058 442.637, 1041.355 450.778, 1046.634 469.870 L 1048.395 476.241 1068.447 475.586 C 1079.476 475.226, 1090.249 474.672, 1092.386 474.355 L 1096.272 473.778 1095.721 466.494 C 1094.986 456.777, 1090.421 443.906, 1084.607 435.161 C 1073.710 418.770, 1056.698 408.638, 1033 404.424 C 1022.271 402.517, 1000.068 401.832, 989.108 403.071 M 1229.500 403.170 C 1181.411 408.633, 1146.918 441.898, 1137.457 491.940 C 1133.693 511.845, 1133.758 541.561, 1137.607 560.500 C 1146.908 606.265, 1179.181 638.345, 1223.084 645.465 C 1246.921 649.331, 1272.215 645.993, 1291.650 636.418 C 1313.048 625.876, 1328.783 606.495, 1337.937 579.406 L 1340.947 570.500 1320.223 563.746 C 1308.825 560.031, 1298.237 556.881, 1296.693 556.746 C 1294.003 556.510, 1293.771 556.857, 1291.112 565.055 C 1282.398 591.920, 1265.782 605.225, 1241 605.179 C 1214.404 605.130, 1195.025 588.773, 1188.069 560.500 C 1182.583 538.206, 1182.843 506.206, 1188.673 486.027 C 1192.023 474.430, 1196.399 466.601, 1203.500 459.500 C 1214.118 448.882, 1226.422 443.991, 1242.460 444.012 C 1258.109 444.032, 1268.004 447.924, 1278.238 458.081 C 1284.575 464.371, 1290.970 474.841, 1291.015 479 C 1291.063 483.489, 1291.877 483.442, 1316.375 477.520 L 1339.991 471.811 1339.357 469.156 C 1337.785 462.572, 1331.288 448.165, 1326.764 441.236 C 1308.033 412.543, 1271.805 398.365, 1229.500 403.170 M 684 524.482 L 684 643 706.494 643 L 728.988 643 729.244 566.758 L 729.500 490.516 776.500 566.718 L 823.500 642.920 847.750 642.960 L 872 643 872 524.500 L 872 406 849.506 406 L 827.012 406 826.756 483.848 L 826.500 561.695 778.945 484.098 L 731.389 406.500 707.695 406.232 L 684 405.964 684 524.482 M 1381 524.500 L 1381 643 1471 643 L 1561 643 1561 623 L 1561 603 1495 603 L 1429 603 1429 571 L 1429 539 1488.500 539 L 1548 539 1548 519 L 1548 499 1488.500 499 L 1429 499 1429 473 L 1429 447 1492.500 447 L 1556 447 1556 426.500 L 1556 406 1468.500 406 L 1381 406 1381 524.500 M 1649 476.500 L 1649 506 1659.753 506 L 1670.505 506 1669.797 492.250 C 1669.079 478.300, 1666.150 449.122, 1665.330 447.750 C 1665.084 447.337, 1661.309 447, 1656.941 447 L 1649 447 1649 476.500" stroke="none" fill="#fbd37c" fill-rule="evenodd"/></svg>